<svg width="883" height="158" viewBox="0 0 883 158" fill="none" xmlns="http://www.w3.org/2000/svg">
<path d="M55.484 46.293C65.8333 46.293 75.2244 48.737 83.6572 53.6251C91.9941 58.5132 98.6062 65.2223 103.493 73.7525C108.381 82.2827 110.824 91.7713 110.824 102.218V147.074C110.824 150.045 109.866 152.489 107.949 154.406C106.033 156.419 103.589 157.425 100.619 157.425C97.6479 157.425 95.2043 156.419 93.2878 154.406C91.2754 152.489 90.2692 150.045 90.2692 147.074V139.742C85.5737 145.492 79.872 149.949 73.1641 153.112C66.4562 156.371 59.2212 158 51.4592 158C41.7807 158 33.0604 155.604 25.2984 150.812C17.4406 145.924 11.2597 139.214 6.75582 130.684C2.25194 122.154 0 112.665 0 102.218C0 91.7713 2.39568 82.2827 7.18704 73.7525C12.0742 65.2223 18.7821 58.5132 27.3108 53.6251C35.7436 48.737 45.1346 46.293 55.484 46.293ZM55.484 139.885C62.1919 139.885 68.2769 138.256 73.7391 134.997C79.2012 131.643 83.4655 127.138 86.532 121.483C89.5985 115.732 91.1317 109.311 91.1317 102.218C91.1317 95.1259 89.5985 88.7043 86.532 82.9536C83.4655 77.2029 79.2012 72.6503 73.7391 69.2957C68.2769 66.037 62.1919 64.4076 55.484 64.4076C48.7761 64.4076 42.691 66.037 37.2289 69.2957C31.8626 72.6503 27.5982 77.2029 24.4359 82.9536C21.2736 88.7043 19.6925 95.1259 19.6925 102.218C19.6925 109.311 21.2736 115.732 24.4359 121.483C27.5982 127.138 31.8626 131.643 37.2289 134.997C42.691 138.256 48.7761 139.885 55.484 139.885ZM151.647 0C148.58 0 146.137 0.958447 144.316 2.87534C142.399 4.69639 141.441 7.14043 141.441 10.2075V102.075C141.441 112.522 143.885 122.01 148.772 130.54C153.659 139.071 160.319 145.78 168.752 150.668C177.089 155.556 186.432 158 196.781 158C207.131 158 216.57 155.556 225.098 150.668C233.627 145.78 240.287 139.071 245.078 130.54C249.87 122.01 252.265 112.522 252.265 102.075C252.265 91.6275 250.061 82.1389 245.653 73.6087C241.149 65.0786 234.968 58.3694 227.111 53.4813C219.253 48.6891 210.484 46.293 200.806 46.293C193.044 46.293 185.809 47.9224 179.101 51.1811C172.393 54.3439 166.691 58.8007 161.996 64.5514V10.2075C161.996 7.14043 161.038 4.69639 159.121 2.87534C157.109 0.958447 154.617 0 151.647 0ZM196.781 139.885C190.073 139.885 183.988 138.256 178.526 134.997C173.16 131.643 168.895 127.09 165.733 121.339C162.667 115.589 161.133 109.167 161.133 102.075C161.133 94.9821 162.667 88.5605 165.733 82.8098C168.895 77.155 173.16 72.6503 178.526 69.2957C183.988 66.037 190.073 64.4076 196.781 64.4076C203.489 64.4076 209.574 66.037 215.036 69.2957C220.403 72.6503 224.667 77.155 227.829 82.8098C230.992 88.5605 232.573 94.9821 232.573 102.075C232.573 109.167 230.992 115.589 227.829 121.339C224.667 127.09 220.403 131.643 215.036 134.997C209.574 138.256 203.489 139.885 196.781 139.885ZM321.548 46.293C330.269 46.293 338.078 47.6827 344.978 50.4622C351.878 53.3376 357.34 57.2672 361.364 62.2511C363.089 64.3597 363.952 66.4683 363.952 68.5769C363.952 70.8772 362.85 72.9857 360.646 74.9026C359.113 75.9569 357.196 76.4841 354.896 76.4841C351.446 76.4841 348.332 75.1902 345.553 72.6024C342.199 69.5353 338.606 67.3788 334.772 66.1329C331.035 64.8869 326.483 64.2639 321.117 64.2639C314.984 64.2639 309.953 65.2702 306.024 67.283C302 69.3916 299.987 72.3148 299.987 76.0528C299.987 78.7364 300.658 80.9888 302 82.8098C303.341 84.6309 305.88 86.3082 309.618 87.8417C313.451 89.3752 318.913 90.9087 326.004 92.4422C340.57 95.3176 350.919 99.391 357.052 104.662C363.185 109.934 366.252 116.691 366.252 124.934C366.252 131.163 364.575 136.77 361.221 141.754C357.867 146.834 352.932 150.812 346.415 153.687C339.899 156.562 332.089 158 322.986 158C313.882 158 305.306 156.61 297.256 153.831C289.207 150.955 282.882 147.265 278.282 142.761C276.557 140.94 275.695 138.831 275.695 136.435C275.695 133.272 277.037 130.684 279.72 128.672C282.211 126.755 284.559 125.796 286.763 125.796C289.446 125.796 291.986 126.994 294.381 129.39C296.969 132.266 300.802 134.71 305.881 136.722C310.959 138.831 316.374 139.885 322.123 139.885C329.789 139.885 335.731 138.591 339.947 136.004C344.163 133.512 346.272 130.109 346.272 125.796C346.272 121.675 344.211 118.224 340.091 115.445C335.874 112.665 328.831 110.365 318.961 108.544C293.183 103.56 280.295 92.9214 280.295 76.6278C280.295 70.1104 282.259 64.5514 286.188 59.9509C290.021 55.4462 295.1 52.0437 301.425 49.7434C307.749 47.4431 314.457 46.293 321.548 46.293ZM439.128 137.01C441.524 137.01 443.536 137.968 445.165 139.885C446.89 141.802 447.753 144.198 447.753 147.074C447.753 150.045 446.651 152.489 444.447 154.406C442.243 156.227 439.368 157.137 435.822 157.137H432.229C425.617 157.137 419.627 155.46 414.261 152.106C408.799 148.655 404.535 143.959 401.468 138.016C398.402 132.17 396.868 125.557 396.868 118.177V68.4331H387.525C384.746 68.4331 382.494 67.6184 380.77 65.9891C378.949 64.3597 378.038 62.347 378.038 59.9509C378.038 57.2672 378.949 55.1107 380.77 53.4813C382.494 51.9478 384.746 51.1811 387.525 51.1811H396.868V22.1401C396.868 19.1689 397.779 16.7728 399.6 14.9518C401.516 13.0349 403.96 12.0764 406.93 12.0764C409.805 12.0764 412.201 13.0349 414.117 14.9518C416.034 16.7728 416.992 19.1689 416.992 22.1401V51.1811H434.097C436.876 51.1811 439.128 51.9478 440.853 53.4813C442.578 55.1107 443.44 57.2672 443.44 59.9509C443.44 62.347 442.578 64.3597 440.853 65.9891C439.128 67.6184 436.876 68.4331 434.097 68.4331H416.992V118.177C416.992 123.544 418.43 128.049 421.304 131.691C424.275 135.237 427.917 137.01 432.229 137.01H439.128ZM526.81 45.8617C533.901 45.8617 539.459 46.9639 543.484 49.1683C547.509 51.2769 549.521 53.9606 549.521 57.2193C549.521 58.0819 549.473 58.7528 549.378 59.232C548.132 63.4492 545.449 65.5578 541.328 65.5578C540.657 65.5578 539.651 65.4619 538.309 65.2702C532.943 64.3118 528.583 63.8326 525.229 63.8326C515.551 63.8326 507.741 66.037 501.799 70.4459C495.954 74.8547 493.031 80.845 493.031 88.4167V147.074C493.031 150.332 492.169 152.824 490.444 154.55C488.815 156.275 486.323 157.137 482.969 157.137C479.711 157.137 477.22 156.323 475.495 154.693C473.77 152.968 472.907 150.428 472.907 147.074V57.2193C472.907 53.9606 473.77 51.4686 475.495 49.7434C477.22 48.0182 479.711 47.1556 482.969 47.1556C489.677 47.1556 493.031 50.5102 493.031 57.2193V60.9572C497.056 56.2608 501.991 52.5708 507.836 49.8872C513.778 47.2035 520.102 45.8617 526.81 45.8617ZM620.529 46.293C630.879 46.293 640.27 48.737 648.702 53.6251C657.039 58.5132 663.651 65.2223 668.539 73.7525C673.426 82.2827 675.869 91.7713 675.869 102.218V147.074C675.869 150.045 674.911 152.489 672.995 154.406C671.078 156.419 668.634 157.425 665.664 157.425C662.693 157.425 660.25 156.419 658.333 154.406C656.417 152.489 655.458 150.045 655.458 147.074V139.742C650.763 145.492 645.061 149.949 638.353 153.112C631.645 156.371 624.362 158 616.504 158C606.922 158 598.201 155.604 590.344 150.812C582.486 145.924 576.305 139.214 571.801 130.684C567.297 122.154 565.045 112.665 565.045 102.218C565.045 91.7713 567.441 82.2827 572.232 73.7525C577.12 65.2223 583.827 58.5132 592.356 53.6251C600.885 48.737 610.276 46.293 620.529 46.293ZM620.529 139.885C627.237 139.885 633.322 138.256 638.784 134.997C644.246 131.643 648.511 127.138 651.577 121.483C654.644 115.732 656.177 109.311 656.177 102.218C656.177 95.1259 654.644 88.7043 651.577 82.9536C648.511 77.2029 644.246 72.6503 638.784 69.2957C633.322 66.037 627.237 64.4076 620.529 64.4076C613.821 64.4076 607.784 66.037 602.418 69.2957C596.956 72.6503 592.643 77.2029 589.481 82.9536C586.319 88.7043 584.738 95.1259 584.738 102.218C584.738 109.311 586.319 115.732 589.481 121.483C592.643 127.138 596.956 131.643 602.418 134.997C607.784 138.256 613.821 139.885 620.529 139.885ZM755.358 46.293C771.266 46.293 784.442 52.3312 794.887 64.4076C796.228 65.8453 796.899 67.5705 796.899 69.5833C796.899 72.5544 795.414 75.0464 792.443 77.0591C791.102 78.0176 789.568 78.4968 787.844 78.4968C784.777 78.4968 782.142 77.2988 779.938 74.9026C776.584 71.2605 772.942 68.5769 769.013 66.8517C765.085 65.2223 760.533 64.4076 755.358 64.4076C745.105 64.4076 736.72 67.8581 730.203 74.7589C723.783 81.6597 720.573 90.8129 720.573 102.218C720.573 109.503 722.106 115.972 725.173 121.627C728.143 127.378 732.36 131.834 737.822 134.997C743.284 138.256 749.465 139.885 756.364 139.885C765.564 139.885 772.942 137.537 778.5 132.841C781.088 130.924 783.579 129.965 785.975 129.965C787.891 129.965 789.664 130.588 791.293 131.834C793.785 133.943 795.031 136.339 795.031 139.023C795.031 141.035 794.216 142.857 792.587 144.486C783.004 153.495 770.93 158 756.364 158C745.823 158 736.336 155.604 727.904 150.812C719.375 145.924 712.763 139.214 708.067 130.684C703.276 122.154 700.88 112.665 700.88 102.218C700.88 91.4838 703.18 81.8514 707.78 73.3212C712.475 64.791 718.944 58.1777 727.185 53.4813C735.522 48.6891 744.913 46.293 755.358 46.293ZM874.376 137.01C876.771 137.01 878.831 137.968 880.556 139.885C882.185 141.802 883 144.198 883 147.074C883 150.045 881.898 152.489 879.694 154.406C877.49 156.227 874.615 157.137 871.07 157.137H867.476C860.96 157.137 854.971 155.46 849.508 152.106C844.046 148.655 839.782 143.959 836.715 138.016C833.649 132.17 832.116 125.557 832.116 118.177V68.4331H822.773C819.994 68.4331 817.742 67.6184 816.017 65.9891C814.292 64.3597 813.429 62.347 813.429 59.9509C813.429 57.2672 814.292 55.1107 816.017 53.4813C817.742 51.9478 819.994 51.1811 822.773 51.1811H832.116V22.1401C832.116 19.1689 833.026 16.7728 834.847 14.9518C836.763 13.0349 839.207 12.0764 842.178 12.0764C845.148 12.0764 847.544 13.0349 849.365 14.9518C851.281 16.7728 852.239 19.1689 852.239 22.1401V51.1811H869.345C872.124 51.1811 874.376 51.9478 876.1 53.4813C877.921 55.1107 878.832 57.2672 878.832 59.9509C878.832 62.347 877.921 64.3597 876.1 65.9891C874.376 67.6184 872.124 68.4331 869.345 68.4331H852.239V118.177C852.239 123.544 853.725 128.049 856.695 131.691C859.57 135.237 863.164 137.01 867.476 137.01H874.376Z" fill="#191542"/>
</svg>
