<svg width="196" height="35" viewBox="0 0 196 35" fill="none" xmlns="http://www.w3.org/2000/svg">
<path d="M38.2932 0V6.12915L25.5288 11.3586L12.7644 6.12915L0 11.3586V5.22946L12.7644 0L25.5288 5.22946L38.2932 0Z" fill="white"/>
<path d="M38.2932 11.5549V17.6841L25.5288 22.9135L12.7644 17.6841L0 22.9135V16.7844L12.7644 11.5549L25.5288 16.7844L38.2932 11.5549Z" fill="white"/>
<path d="M38.2932 23.0828V29.2119L25.5288 34.4414L12.7644 29.2119L0 34.4414V28.3403L12.7644 23.0828L25.5288 28.3403L38.2932 23.0828Z" fill="white"/>
<path d="M62.8659 24.8185H66.9365L60.5259 8.30036H55.0198L48.6289 24.8185H52.6798L53.7023 22.0458H61.8434L62.8659 24.8185ZM54.8035 19.0764L57.3992 12.0169H58.1465L60.7422 19.0764H54.8035Z" fill="white"/>
<path d="M85.5602 16.4414C85.5602 11.368 81.8829 7.74976 76.4752 7.74976C71.0872 7.74976 67.4099 11.368 67.4099 16.5594C67.4099 21.7508 71.0872 25.3691 76.4752 25.3691C78.0877 25.3691 79.6412 24.8971 80.8407 24.2875L83.2791 26.5686C84.1247 25.9 84.8326 25.1921 85.4815 24.3268L83.2791 22.0851C84.7146 20.5906 85.5602 18.7225 85.5602 16.4414ZM71.2838 16.5594C71.2838 13.3148 73.5452 11.1517 76.4752 11.1517C79.4249 11.1517 81.6666 13.3148 81.6666 16.5594C81.6666 19.804 79.4249 21.9671 76.4752 21.9671C73.5452 21.9671 71.2838 19.804 71.2838 16.5594Z" fill="white"/>
<path d="M96.0908 25.3691C101.184 25.3691 104.055 22.97 104.055 17.9359V8.30036H100.122V17.8376C100.122 20.4726 98.7848 22.0654 96.0908 22.0654C93.3967 22.0654 92.0792 20.4726 92.0792 17.8376V8.30036H88.1267V17.9359C88.1267 22.97 90.9977 25.3691 96.0908 25.3691Z" fill="white"/>
<path d="M106.912 24.8185H120.815V21.5935H110.826V17.9556H120.461V15.1239H110.826V11.5057H120.815V8.30036H106.912V24.8185Z" fill="white"/>
<path d="M131.284 8.30036H123.693V24.8185H131.284C137.694 24.8185 140.133 21.2592 140.133 16.5594C140.133 11.8596 137.694 8.30036 131.284 8.30036ZM131.264 21.5148H127.606L127.646 11.604H131.264C134.469 11.604 136.2 13.3738 136.2 16.5594C136.2 19.745 134.469 21.5148 131.264 21.5148Z" fill="white"/>
<path d="M150.035 25.3691C155.128 25.3691 157.999 22.97 157.999 17.9359V8.30036H154.066V17.8376C154.066 20.4726 152.729 22.0654 150.035 22.0654C147.34 22.0654 146.023 20.4726 146.023 17.8376V8.30036H142.07V17.9359C142.07 22.97 144.941 25.3691 150.035 25.3691Z" fill="white"/>
<path d="M169.135 25.3691C172.792 25.3691 176.47 23.7566 177.276 18.8798H173.52C172.812 21.0232 171.18 21.9671 169.135 21.9671C166.205 21.9671 163.963 19.7254 163.963 16.5594C163.963 13.3738 166.205 11.1517 169.135 11.1517C171.18 11.1517 172.812 12.0956 173.52 14.2193H177.276C176.47 9.36224 172.753 7.74976 169.135 7.74976C163.786 7.74976 160.089 11.368 160.089 16.5594C160.089 21.7508 163.786 25.3691 169.135 25.3691Z" fill="white"/>
<path d="M195.003 8.30036H178.701V11.5843H184.876V24.8185H188.808V11.5843H195.003V8.30036Z" fill="white"/>
</svg>
